<svg width="110" height="34" viewBox="0 0 110 34" fill="none" xmlns="http://www.w3.org/2000/svg">
<g filter="url(#filter0_d_23_13)">
<path d="M35.8635 6.745V7.582H34.1985V13H33.1725V7.582H31.4985V6.745H35.8635ZM45.0476 6.745L43.1936 13H42.0326L40.7186 8.266L39.3236 13L38.1716 13.009L36.3986 6.745H37.4876L38.7836 11.839L40.1876 6.745H41.3396L42.6446 11.812L43.9496 6.745H45.0476ZM48.7468 13.063C48.1648 13.063 47.6278 12.928 47.1358 12.658C46.6498 12.382 46.2628 12.001 45.9748 11.515C45.6928 11.023 45.5518 10.471 45.5518 9.859C45.5518 9.247 45.6928 8.698 45.9748 8.212C46.2628 7.726 46.6498 7.348 47.1358 7.078C47.6278 6.802 48.1648 6.664 48.7468 6.664C49.3348 6.664 49.8718 6.802 50.3578 7.078C50.8498 7.348 51.2368 7.726 51.5188 8.212C51.8008 8.698 51.9418 9.247 51.9418 9.859C51.9418 10.471 51.8008 11.023 51.5188 11.515C51.2368 12.001 50.8498 12.382 50.3578 12.658C49.8718 12.928 49.3348 13.063 48.7468 13.063ZM48.7468 12.172C49.1608 12.172 49.5298 12.079 49.8538 11.893C50.1778 11.701 50.4298 11.431 50.6098 11.083C50.7958 10.729 50.8888 10.321 50.8888 9.859C50.8888 9.397 50.7958 8.992 50.6098 8.644C50.4298 8.296 50.1778 8.029 49.8538 7.843C49.5298 7.657 49.1608 7.564 48.7468 7.564C48.3328 7.564 47.9638 7.657 47.6398 7.843C47.3158 8.029 47.0608 8.296 46.8748 8.644C46.6948 8.992 46.6048 9.397 46.6048 9.859C46.6048 10.321 46.6948 10.729 46.8748 11.083C47.0608 11.431 47.3158 11.701 47.6398 11.893C47.9638 12.079 48.3328 12.172 48.7468 12.172ZM58.6373 9.787C58.9733 9.847 59.2583 10.024 59.4923 10.318C59.7263 10.612 59.8433 10.945 59.8433 11.317C59.8433 11.635 59.7593 11.923 59.5913 12.181C59.4293 12.433 59.1923 12.634 58.8803 12.784C58.5683 12.928 58.2053 13 57.7913 13H55.2893V6.745H57.6743C58.1003 6.745 58.4663 6.817 58.7723 6.961C59.0783 7.105 59.3093 7.3 59.4653 7.546C59.6213 7.786 59.6993 8.056 59.6993 8.356C59.6993 8.716 59.6033 9.016 59.4113 9.256C59.2193 9.496 58.9613 9.673 58.6373 9.787ZM56.3153 9.373H57.5843C57.9203 9.373 58.1813 9.298 58.3673 9.148C58.5593 8.992 58.6553 8.77 58.6553 8.482C58.6553 8.2 58.5593 7.981 58.3673 7.825C58.1813 7.663 57.9203 7.582 57.5843 7.582H56.3153V9.373ZM57.7013 12.163C58.0493 12.163 58.3223 12.079 58.5203 11.911C58.7183 11.743 58.8173 11.509 58.8173 11.209C58.8173 10.903 58.7123 10.66 58.5023 10.48C58.2923 10.3 58.0133 10.21 57.6653 10.21H56.3153V12.163H57.7013ZM63.8112 13.063C63.2292 13.063 62.6922 12.928 62.2002 12.658C61.7142 12.382 61.3272 12.001 61.0392 11.515C60.7572 11.023 60.6162 10.471 60.6162 9.859C60.6162 9.247 60.7572 8.698 61.0392 8.212C61.3272 7.726 61.7142 7.348 62.2002 7.078C62.6922 6.802 63.2292 6.664 63.8112 6.664C64.3992 6.664 64.9362 6.802 65.4222 7.078C65.9142 7.348 66.3012 7.726 66.5832 8.212C66.8652 8.698 67.0062 9.247 67.0062 9.859C67.0062 10.471 66.8652 11.023 66.5832 11.515C66.3012 12.001 65.9142 12.382 65.4222 12.658C64.9362 12.928 64.3992 13.063 63.8112 13.063ZM63.8112 12.172C64.2252 12.172 64.5942 12.079 64.9182 11.893C65.2422 11.701 65.4942 11.431 65.6742 11.083C65.8602 10.729 65.9532 10.321 65.9532 9.859C65.9532 9.397 65.8602 8.992 65.6742 8.644C65.4942 8.296 65.2422 8.029 64.9182 7.843C64.5942 7.657 64.2252 7.564 63.8112 7.564C63.3972 7.564 63.0282 7.657 62.7042 7.843C62.3802 8.029 62.1252 8.296 61.9392 8.644C61.7592 8.992 61.6692 9.397 61.6692 9.859C61.6692 10.321 61.7592 10.729 61.9392 11.083C62.1252 11.431 62.3802 11.701 62.7042 11.893C63.0282 12.079 63.3972 12.172 63.8112 12.172ZM72.0569 6.745V7.582L70.3919 7.582V13H69.3659V7.582H67.6919V6.745H72.0569ZM75.1569 13.063C74.7369 13.063 74.3589 12.991 74.0229 12.847C73.6869 12.697 73.4229 12.487 73.2309 12.217C73.0389 11.947 72.9429 11.632 72.9429 11.272H74.0409C74.0649 11.542 74.1699 11.764 74.3559 11.938C74.5479 12.112 74.8149 12.199 75.1569 12.199C75.5109 12.199 75.7869 12.115 75.9849 11.947C76.1829 11.773 76.2819 11.551 76.2819 11.281C76.2819 11.071 76.2189 10.9 76.0929 10.768C75.9729 10.636 75.8199 10.534 75.6339 10.462C75.4539 10.39 75.2019 10.312 74.8779 10.228C74.4699 10.12 74.1369 10.012 73.8789 9.904C73.6269 9.79 73.4109 9.616 73.2309 9.382C73.0509 9.148 72.9609 8.836 72.9609 8.446C72.9609 8.086 73.0509 7.771 73.2309 7.501C73.4109 7.231 73.6629 7.024 73.9869 6.88C74.3109 6.736 74.6859 6.664 75.1119 6.664C75.7179 6.664 76.2129 6.817 76.5969 7.123C76.9869 7.423 77.2029 7.837 77.2449 8.365H76.1109C76.0929 8.137 75.9849 7.942 75.7869 7.78C75.5889 7.618 75.3279 7.537 75.0039 7.537C74.7099 7.537 74.4699 7.612 74.2839 7.762C74.0979 7.912 74.0049 8.128 74.0049 8.41C74.0049 8.602 74.0619 8.761 74.1759 8.887C74.2959 9.007 74.4459 9.103 74.6259 9.175C74.8059 9.247 75.0519 9.325 75.3639 9.409C75.7779 9.523 76.1139 9.637 76.3719 9.751C76.6359 9.865 76.8579 10.042 77.0379 10.282C77.2239 10.516 77.3169 10.831 77.3169 11.227C77.3169 11.545 77.2299 11.845 77.0559 12.127C76.8879 12.409 76.6389 12.637 76.3089 12.811C75.9849 12.979 75.6009 13.063 75.1569 13.063Z" fill="black"/>
<path d="M37.6069 23.084C36.8149 23.084 36.0869 22.9 35.4229 22.532C34.7669 22.164 34.2429 21.652 33.8509 20.996C33.4669 20.332 33.2749 19.588 33.2749 18.764C33.2749 17.94 33.4669 17.2 33.8509 16.544C34.2429 15.888 34.7669 15.376 35.4229 15.008C36.0869 14.64 36.8149 14.456 37.6069 14.456C38.3989 14.456 39.1229 14.64 39.7789 15.008C40.4429 15.376 40.9629 15.888 41.3389 16.544C41.7229 17.2 41.9149 17.94 41.9149 18.764C41.9149 19.588 41.7229 20.332 41.3389 20.996C40.9549 21.652 40.4349 22.164 39.7789 22.532C39.1229 22.9 38.3989 23.084 37.6069 23.084ZM37.6069 21.212C38.2789 21.212 38.8149 20.988 39.2149 20.54C39.6229 20.092 39.8269 19.5 39.8269 18.764C39.8269 18.02 39.6229 17.428 39.2149 16.988C38.8149 16.54 38.2789 16.316 37.6069 16.316C36.9269 16.316 36.3829 16.536 35.9749 16.976C35.5749 17.416 35.3749 18.012 35.3749 18.764C35.3749 19.508 35.5749 20.104 35.9749 20.552C36.3829 20.992 36.9269 21.212 37.6069 21.212ZM50.5925 23H48.5405L45.1085 17.804V23H43.0565V14.576H45.1085L48.5405 19.796V14.576H50.5925V23ZM54.132 16.22V17.924H56.88V19.508H54.132V21.356H57.24V23H52.08V14.576H57.24V16.22H54.132ZM63.1671 21.416H65.8551V23H61.1151V14.576L63.1671 14.576V21.416ZM68.8859 14.576V23H66.8339V14.576H68.8859ZM72.4249 16.22V17.924H75.1729V19.508H72.4249V21.356H75.5329V23H70.3729V14.576H75.5329V16.22H72.4249Z" fill="#880000"/>
<path d="M98.7715 15.1398C99.0569 15.0633 99.3546 15.0438 99.6476 15.0824C99.9405 15.1209 100.223 15.2168 100.479 15.3646C100.735 15.5123 100.959 15.709 101.139 15.9434C101.319 16.1778 101.451 16.4454 101.527 16.7308L101.761 17.604C101.901 18.1261 101.927 18.6723 101.836 19.2051C101.745 19.738 101.54 20.245 101.235 20.6913C100.071 22.3945 98.0766 23.6082 95.2851 24.3562C92.4936 25.1042 90.1621 25.0498 88.3054 24.1558C87.8188 23.9219 87.3884 23.5856 87.0436 23.17C86.6989 22.7544 86.448 22.2692 86.3081 21.7477L86.0731 20.8707C85.919 20.2944 86 19.6804 86.2984 19.1638C86.5968 18.6473 87.0881 18.2703 87.6644 18.1159L98.7715 15.1398ZM90.1087 5.03766C90.2838 4.99076 90.4699 5.00884 90.6327 5.08855C90.7955 5.16827 90.9239 5.30422 90.9941 5.47128L91.0273 5.56799L91.2202 6.29173L94.6009 5.38586C95.1773 5.23141 95.7915 5.31227 96.3083 5.61064C96.8251 5.90901 97.2022 6.40045 97.3566 6.97685L98.5226 11.3283C98.677 11.9048 98.5962 12.5189 98.2978 13.0357C97.9994 13.5525 97.508 13.9296 96.9316 14.084L88.7212 16.284C88.1448 16.4384 87.5307 16.3576 87.0139 16.0592C86.4971 15.7608 86.12 15.2694 85.9655 14.693L84.7998 10.3425C84.7233 10.057 84.7038 9.75922 84.7424 9.46619C84.781 9.17317 84.877 8.89062 85.0248 8.63469C85.1727 8.37876 85.3695 8.15447 85.604 7.97462C85.8386 7.79477 86.1063 7.6629 86.3918 7.58653L89.7723 6.6797L89.5784 5.95622C89.5315 5.781 89.5497 5.59472 89.6296 5.43188C89.7095 5.26904 89.8457 5.14068 90.013 5.07056L90.1087 5.03766ZM89.0991 9.96693C88.9349 10.004 88.7798 10.0738 88.6432 10.1722C88.5067 10.2707 88.3914 10.3957 88.3043 10.5398C88.2172 10.6839 88.1601 10.8441 88.1365 11.0108C88.1128 11.1775 88.1231 11.3472 88.1667 11.5098C88.2103 11.6725 88.2862 11.8246 88.3901 11.9571C88.4939 12.0897 88.6234 12.1999 88.7709 12.2811C88.9183 12.3624 89.0807 12.413 89.2482 12.43C89.4157 12.4469 89.5849 12.4299 89.7457 12.3798C90.0539 12.2838 90.3131 12.0723 90.4689 11.7895C90.6247 11.5068 90.6651 11.1746 90.5815 10.8628C90.4979 10.5509 90.297 10.2835 90.0206 10.1165C89.7443 9.9495 89.4141 9.8959 89.0991 9.96693ZM93.439 8.80405C93.2748 8.84109 93.1197 8.91092 92.9831 9.00936C92.8466 9.1078 92.7313 9.23282 92.6442 9.37691C92.5571 9.521 92.5 9.6812 92.4764 9.84789C92.4527 10.0146 92.463 10.1843 92.5066 10.347C92.5502 10.5096 92.6262 10.6617 92.73 10.7943C92.8338 10.9268 92.9633 11.037 93.1108 11.1182C93.2582 11.1995 93.4206 11.2501 93.5881 11.2671C93.7556 11.284 93.9248 11.267 94.0856 11.2169C94.3938 11.121 94.653 10.9094 94.8088 10.6267C94.9646 10.3439 95.005 10.0118 94.9214 9.69991C94.8378 9.38805 94.6369 9.12061 94.3605 8.95362C94.0842 8.78663 93.754 8.73303 93.439 8.80405Z" fill="#880000"/>
<path d="M21.7362 18.1178C22.0216 18.1942 22.2892 18.3262 22.5236 18.506C22.758 18.6859 22.9547 18.9102 23.1025 19.1661C23.2502 19.422 23.3461 19.7045 23.3846 19.9974C23.4232 20.2903 23.4037 20.588 23.3272 20.8734L23.0933 21.7466C22.9535 22.2688 22.7025 22.7546 22.3574 23.1707C22.0124 23.5868 21.5815 23.9234 21.0942 24.1574C19.2347 25.0505 16.9002 25.1042 14.1087 24.3562C11.3172 23.6082 9.32523 22.3953 8.16431 20.6928C7.85981 20.2469 7.6552 19.7405 7.56447 19.2082C7.47375 18.6759 7.49904 18.1303 7.63863 17.6087L7.87364 16.7316C8.0283 16.1554 8.40544 15.6643 8.92215 15.3661C9.43885 15.068 10.0528 14.9872 10.6291 15.1416L21.7362 18.1178ZM19.2851 5.03766C19.4602 5.08457 19.6123 5.19329 19.7134 5.34371C19.8145 5.49412 19.8577 5.67606 19.8351 5.85588L19.8154 5.95622L19.6206 6.67943L23.0013 7.5853C23.5778 7.73975 24.0692 8.11685 24.3676 8.63363C24.6659 9.15042 24.7468 9.76457 24.5923 10.341L23.4264 14.6925C23.2719 15.2689 22.8948 15.7603 22.378 16.0587C21.8612 16.3571 21.2471 16.4379 20.6707 16.2835L12.4603 14.0835C11.8839 13.9291 11.3925 13.552 11.0941 13.0352C10.7957 12.5184 10.7149 11.9042 10.8693 11.3278L12.035 6.9773C12.1115 6.69181 12.2435 6.42419 12.4235 6.18973C12.6034 5.95527 12.8278 5.75855 13.0838 5.61083C13.3398 5.46311 13.6224 5.36727 13.9154 5.32879C14.2085 5.29031 14.5062 5.30994 14.7917 5.38656L18.1727 6.29147L18.3665 5.56799C18.4135 5.39279 18.5224 5.24056 18.673 5.13949C18.8236 5.03841 19.0058 4.99535 19.1857 5.01828L19.2851 5.03766ZM15.9461 8.80172C15.7854 8.75168 15.6162 8.73462 15.4487 8.75158C15.2811 8.76854 15.1188 8.81916 14.9713 8.90041C14.8239 8.98166 14.6944 9.09185 14.5905 9.22439C14.4867 9.35693 14.4107 9.50908 14.3672 9.6717C14.3236 9.83432 14.3133 10.0041 14.3369 10.1708C14.3606 10.3375 14.4177 10.4977 14.5047 10.6417C14.5918 10.7858 14.7071 10.9109 14.8437 11.0093C14.9803 11.1077 15.1353 11.1776 15.2996 11.2146C15.6145 11.2856 15.9448 11.232 16.2211 11.065C16.4974 10.898 16.6984 10.6306 16.782 10.3187C16.8655 10.0069 16.8252 9.67478 16.6694 9.392C16.5136 9.10922 16.2544 8.89769 15.9461 8.80172ZM20.286 9.96459C20.1253 9.91455 19.9561 9.8975 19.7886 9.91446C19.6211 9.93141 19.4587 9.98204 19.3112 10.0633C19.1638 10.1445 19.0343 10.2547 18.9304 10.3873C18.8266 10.5198 18.7506 10.672 18.7071 10.8346C18.6635 10.9972 18.6532 11.1669 18.6769 11.3336C18.7005 11.5003 18.7576 11.6605 18.8447 11.8046C18.9317 11.9487 19.047 12.0737 19.1836 12.1722C19.3202 12.2706 19.4752 12.3404 19.6395 12.3775C19.9544 12.4485 20.2847 12.3949 20.561 12.2279C20.8373 12.0609 21.0383 11.7935 21.1219 11.4816C21.2054 11.1698 21.1651 10.8377 21.0093 10.5549C20.8535 10.2721 20.5943 10.0606 20.286 9.96459Z" fill="black"/>
</g>
<defs>
<filter id="filter0_d_23_13" x="-3.05176e-05" y="0" width="109.394" height="33.3939" filterUnits="userSpaceOnUse" color-interpolation-filters="sRGB">
<feFlood flood-opacity="0" result="BackgroundImageFix"/>
<feColorMatrix in="SourceAlpha" type="matrix" values="0 0 0 0 0 0 0 0 0 0 0 0 0 0 0 0 0 0 127 0" result="hardAlpha"/>
<feOffset dy="2"/>
<feGaussianBlur stdDeviation="1"/>
<feComposite in2="hardAlpha" operator="out"/>
<feColorMatrix type="matrix" values="0 0 0 0 0 0 0 0 0 0 0 0 0 0 0 0 0 0 0.25 0"/>
<feBlend mode="normal" in2="BackgroundImageFix" result="effect1_dropShadow_23_13"/>
<feBlend mode="normal" in="SourceGraphic" in2="effect1_dropShadow_23_13" result="shape"/>
</filter>
</defs>
</svg>
