<svg width="119" height="61" viewBox="0 0 119 61" fill="none" xmlns="http://www.w3.org/2000/svg">
<path d="M9.57278 5.37599C9.6887 5.40705 9.78605 5.44556 9.86484 5.49151C9.95135 5.53954 10.0092 5.61717 10.0385 5.72439C10.0698 5.82389 10.0596 5.97023 10.0078 6.16341C9.95604 6.3566 9.89069 6.49231 9.81175 6.57054C9.73489 6.64105 9.64698 6.67547 9.54804 6.67381C9.45117 6.66442 9.34478 6.64419 9.22887 6.61313L7.09611 6.04166L5.4407 12.2197C5.4055 12.3511 5.35795 12.4667 5.29805 12.5666C5.24795 12.6609 5.16439 12.7254 5.04737 12.7603C4.93808 12.7973 4.77139 12.7858 4.54729 12.7257C4.33865 12.6698 4.19342 12.5936 4.1116 12.4972C4.02771 12.4084 3.98763 12.3107 3.99136 12.2041C3.99717 12.0897 4.01767 11.9668 4.05287 11.8354L5.70517 5.66896L3.54923 5.09128C3.44104 5.06229 3.34369 5.02378 3.25717 4.97575C3.17066 4.92772 3.10788 4.85293 3.06883 4.75136C3.03752 4.65186 3.04774 4.50552 3.09951 4.31234C3.15127 4.11915 3.21559 3.98731 3.29245 3.9168C3.37139 3.83856 3.46033 3.80028 3.55927 3.80194C3.66594 3.80568 3.77337 3.82204 3.88155 3.85103L9.57278 5.37599ZM11.6533 14.5925C11.4987 14.5511 11.3823 14.4909 11.3041 14.412C11.2279 14.3253 11.177 14.2371 11.1514 14.1474C11.1334 14.0598 11.124 13.9869 11.123 13.9286L10.6339 6.6666C10.6229 6.39862 10.661 6.21006 10.7482 6.10091C10.8375 5.98404 11.0249 5.9183 11.3104 5.9037C11.5047 5.8895 11.6549 5.90076 11.761 5.93748C11.8671 5.97419 11.9436 6.04437 11.9903 6.14801C12.0469 6.24599 12.0795 6.38722 12.088 6.57172L12.403 12.0727L15.24 7.46598C15.2838 7.39491 15.3355 7.32592 15.3948 7.259C15.4639 7.18642 15.5521 7.13551 15.6594 7.10627C15.7666 7.07702 15.9013 7.08414 16.0636 7.12762C16.2491 7.17731 16.3799 7.24549 16.456 7.33216C16.5322 7.41883 16.5792 7.50597 16.5972 7.5936C16.6249 7.67557 16.6382 7.74953 16.6371 7.81549L16.7751 13.2815L19.8162 8.6549C19.9179 8.49166 20.0149 8.37686 20.1072 8.3105C20.2073 8.2462 20.3163 8.22572 20.4343 8.24905C20.5543 8.26465 20.6911 8.32614 20.8445 8.43351C21.0057 8.54295 21.1145 8.64666 21.1711 8.74464C21.2298 8.83489 21.2435 8.93798 21.2125 9.05389C21.1835 9.16207 21.1192 9.29392 21.0195 9.44943L16.9734 15.5087C16.9455 15.5509 16.8981 15.6044 16.831 15.6693C16.7717 15.7362 16.6873 15.7882 16.578 15.8251C16.4708 15.8544 16.3361 15.8473 16.1738 15.8038C16.0115 15.7603 15.8933 15.6914 15.8192 15.597C15.7452 15.5026 15.6963 15.4067 15.6727 15.3092C15.6491 15.2118 15.6348 15.1417 15.6297 15.0989L15.4199 9.57645L12.48 14.2426C12.4501 14.2925 12.4005 14.3538 12.3314 14.4263C12.27 14.501 12.1836 14.5607 12.0722 14.6054C11.9629 14.6423 11.8233 14.6381 11.6533 14.5925ZM23.72 17.9624C23.1637 17.8134 22.67 17.5693 22.2391 17.2302C21.818 16.8855 21.4716 16.4779 21.2001 16.0076C20.9307 15.5296 20.7568 15.0192 20.6786 14.4765C20.6025 13.926 20.64 13.3687 20.7912 12.8046C20.9465 12.2251 21.1919 11.7111 21.5274 11.2626C21.8727 10.8085 22.2738 10.4398 22.7307 10.1564C23.1974 9.86734 23.6954 9.67778 24.2248 9.58771C24.7541 9.49765 25.2893 9.52509 25.8302 9.67003C26.3943 9.82118 26.8869 10.0691 27.308 10.4139C27.7389 10.7529 28.0853 11.1605 28.347 11.6364C28.6087 12.1124 28.7766 12.6295 28.8507 13.1876C28.9268 13.7381 28.8872 14.3031 28.7319 14.8827C28.5808 15.4468 28.3374 15.953 28.0019 16.4015C27.6685 16.8422 27.2684 17.2071 26.8017 17.4962C26.3371 17.7775 25.8401 17.9632 25.3107 18.0532C24.7912 18.1376 24.261 18.1074 23.72 17.9624ZM24.041 16.5328C24.3965 16.628 24.7474 16.6475 25.0937 16.5913C25.4401 16.535 25.7623 16.4143 26.0604 16.2291C26.3662 16.046 26.6283 15.8098 26.8466 15.5204C27.067 15.2234 27.2279 14.8855 27.3294 14.5069C27.4309 14.1282 27.4555 13.758 27.4034 13.3962C27.3611 13.0287 27.2532 12.6892 27.0799 12.3778C26.9165 12.0606 26.6988 11.7911 26.427 11.5692C26.1629 11.3494 25.8531 11.1918 25.4976 11.0966C25.1499 11.0034 24.8028 10.9849 24.4565 11.0412C24.1101 11.0975 23.783 11.221 23.4751 11.4118C23.177 11.597 22.9178 11.8381 22.6974 12.1352C22.477 12.4323 22.3171 12.7663 22.2177 13.1372C22.1183 13.5081 22.0898 13.8773 22.1321 14.2448C22.1822 14.6143 22.29 14.9538 22.4556 15.2632C22.6211 15.5726 22.836 15.8372 23.1001 16.0571C23.3719 16.279 23.6855 16.4376 24.041 16.5328ZM32.0077 20.0713C31.8067 20.0175 31.6654 19.9423 31.5836 19.8458C31.5017 19.7494 31.4609 19.6391 31.461 19.5149C31.4689 19.3927 31.4915 19.2621 31.5288 19.123L33.2929 12.5393C33.3301 12.4002 33.3787 12.2807 33.4386 12.1808C33.5006 12.0732 33.5873 11.997 33.6986 11.9523C33.8177 11.9097 33.9816 11.9163 34.1902 11.9722L37.2503 12.7921C37.6985 12.9122 38.0646 13.1222 38.3487 13.4219C38.6405 13.7237 38.8365 14.0744 38.9365 14.4739C39.0385 14.8656 39.0347 15.2663 38.925 15.6759C38.8753 15.8613 38.8024 16.0406 38.7064 16.2136C38.6201 16.381 38.5099 16.5295 38.3758 16.6592C38.2493 16.791 38.1039 16.9011 37.9394 16.9895C38.0799 17.1762 38.1888 17.3877 38.2664 17.6238C38.3439 17.8599 38.3815 18.106 38.3791 18.3621C38.3866 18.6126 38.3561 18.8653 38.2878 19.1203C38.1869 19.466 38.0342 19.7729 37.8298 20.0412C37.6275 20.3017 37.3843 20.514 37.1001 20.678C36.8237 20.8441 36.5221 20.9497 36.1954 20.9946C35.8686 21.0396 35.5352 21.0165 35.1952 20.9254L32.0077 20.0713ZM33.0928 18.8961L35.4458 19.5266C35.6699 19.5866 35.8783 19.5969 36.0711 19.5575C36.2716 19.5201 36.4459 19.426 36.594 19.2752C36.7421 19.1244 36.8544 18.906 36.931 18.6201C36.9911 18.396 37.0078 18.21 36.9811 18.0621C36.9643 17.9085 36.916 17.7796 36.8363 17.6754C36.7643 17.5733 36.6706 17.4902 36.5552 17.4262C36.4476 17.3642 36.3358 17.3177 36.2199 17.2866C36.1061 17.2478 35.9989 17.215 35.8985 17.1881L35.3653 17.0452C35.1644 16.9914 35.03 16.9057 34.9621 16.7881C34.8963 16.6628 34.8934 16.4881 34.9534 16.264C35.0093 16.0553 35.0989 15.922 35.2221 15.8639C35.3474 15.7981 35.5144 15.7931 35.7231 15.849L36.2447 15.9888C36.3451 16.0157 36.4543 16.0408 36.5723 16.0642C36.698 16.0896 36.8212 16.0936 36.9418 16.0762C37.0645 16.0511 37.1761 15.9899 37.2767 15.8926C37.3773 15.7954 37.4576 15.6347 37.5177 15.4106C37.6109 15.0628 37.5854 14.7869 37.4414 14.5826C37.3071 14.3727 37.0198 14.2088 36.5793 14.0907L34.5277 13.541L33.0928 18.8961ZM42.3179 22.9457C41.7615 22.7966 41.2679 22.5526 40.8369 22.2135C40.4158 21.8687 40.0695 21.4612 39.798 20.9909C39.5285 20.5129 39.3547 20.0025 39.2765 19.4598C39.2004 18.9093 39.2379 18.352 39.389 17.7879C39.5443 17.2084 39.7897 16.6944 40.1252 16.2459C40.4705 15.7918 40.8716 15.4231 41.3285 15.1397C41.7952 14.8506 42.2933 14.6611 42.8226 14.571C43.352 14.4809 43.8871 14.5084 44.428 14.6533C44.9921 14.8045 45.4847 15.0524 45.9059 15.3971C46.3368 15.7362 46.6831 16.1437 46.9448 16.6197C47.2066 17.0957 47.3745 17.6127 47.4485 18.1709C47.5246 18.7214 47.4851 19.2864 47.3298 19.8659C47.1786 20.43 46.9353 20.9363 46.5998 21.3848C46.2664 21.8255 45.8663 22.1904 45.3996 22.4794C44.9349 22.7608 44.4379 22.9465 43.9086 23.0365C43.389 23.1209 42.8588 23.0907 42.3179 22.9457ZM42.6388 21.5161C42.9943 21.6113 43.3452 21.6308 43.6916 21.5745C44.0379 21.5183 44.3602 21.3975 44.6582 21.2124C44.9641 21.0293 45.2261 20.7931 45.4445 20.5037C45.6649 20.2066 45.8258 19.8688 45.9272 19.4901C46.0287 19.1115 46.0534 18.7413 46.0012 18.3794C45.9589 18.012 45.8511 17.6725 45.6778 17.361C45.5143 17.0439 45.2966 16.7744 45.0248 16.5525C44.7607 16.3326 44.4509 16.1751 44.0955 16.0798C43.7477 15.9867 43.4007 15.9682 43.0543 16.0245C42.708 16.0808 42.3808 16.2043 42.073 16.3951C41.7749 16.5803 41.5156 16.8214 41.2952 17.1185C41.0748 17.4156 40.9149 17.7496 40.8156 18.1205C40.7162 18.4914 40.6876 18.8606 40.73 19.2281C40.78 19.5976 40.8878 19.9371 41.0534 20.2465C41.219 20.5559 41.4338 20.8205 41.6979 21.0403C41.9697 21.2622 42.2834 21.4208 42.6388 21.5161ZM54.6355 17.4505C54.7514 17.4816 54.8487 17.5201 54.9275 17.566C55.0141 17.6141 55.0719 17.6917 55.1012 17.7989C55.1325 17.8984 55.1223 18.0447 55.0705 18.2379C55.0187 18.4311 54.9534 18.5668 54.8745 18.6451C54.7976 18.7156 54.7097 18.75 54.6107 18.7483C54.5139 18.7389 54.4075 18.7187 54.2916 18.6876L52.1588 18.1162L50.5034 24.2942C50.4682 24.4256 50.4207 24.5412 50.3608 24.6411C50.3107 24.7354 50.2271 24.8 50.1101 24.8349C50.0008 24.8718 49.8341 24.8603 49.61 24.8002C49.4014 24.7443 49.2561 24.6682 49.1743 24.5717C49.0904 24.483 49.0503 24.3853 49.0541 24.2786C49.0599 24.1642 49.0804 24.0413 49.1156 23.9099L50.7679 17.7435L48.6119 17.1658C48.5037 17.1368 48.4064 17.0983 48.3199 17.0503C48.2334 17.0022 48.1706 16.9274 48.1315 16.8259C48.1002 16.7264 48.1104 16.58 48.1622 16.3869C48.214 16.1937 48.2783 16.0618 48.3552 15.9913C48.4341 15.9131 48.523 15.8748 48.622 15.8765C48.7286 15.8802 48.8361 15.8966 48.9443 15.9255L54.6355 17.4505ZM56.3016 26.7051C55.9539 26.6119 55.6485 26.4845 55.3853 26.3229C55.1299 26.1634 54.9116 25.9889 54.7305 25.7996C54.557 25.6123 54.4155 25.4294 54.306 25.251C54.1964 25.0726 54.1224 24.9161 54.0839 24.7815C54.0207 24.6155 53.9882 24.4743 53.9862 24.3578C53.9843 24.2414 54.02 24.1391 54.0933 24.0511C54.1764 23.9574 54.303 23.8712 54.4731 23.7926C54.6454 23.7062 54.7894 23.6786 54.9053 23.7096C55.031 23.735 55.1376 23.8009 55.2251 23.9071C55.3203 24.0154 55.4034 24.1537 55.4743 24.3217C55.5935 24.6187 55.7545 24.8523 55.9573 25.0226C56.1622 25.1852 56.3806 25.2976 56.6124 25.3597C56.9138 25.4404 57.1869 25.4722 57.4317 25.455C57.6786 25.43 57.8856 25.353 58.0527 25.2238C58.2275 25.0967 58.3491 24.9057 58.4174 24.6507C58.4733 24.442 58.4532 24.2544 58.357 24.0879C58.2707 23.9157 58.1356 23.7552 57.9518 23.6066C57.7701 23.4502 57.5582 23.2982 57.3162 23.1505C57.0839 22.9972 56.8499 22.8351 56.6141 22.6643C56.4452 22.5528 56.2794 22.4296 56.1167 22.295C55.9561 22.1525 55.8102 22.0016 55.679 21.8422C55.5555 21.6849 55.4527 21.5124 55.3704 21.3247C55.298 21.1314 55.255 20.9211 55.2413 20.6938C55.2277 20.4665 55.2581 20.2138 55.3327 19.9356C55.4507 19.4952 55.6624 19.1378 55.9678 18.8635C56.2753 18.5814 56.6481 18.3956 57.0862 18.3059C57.5264 18.2086 57.9938 18.2261 58.4884 18.3586C58.8052 18.4435 59.0789 18.55 59.3097 18.6781C59.5502 18.8005 59.7469 18.9319 59.8997 19.0723C60.0624 19.2069 60.1893 19.3362 60.2804 19.46C60.3812 19.5781 60.4504 19.6753 60.488 19.7516C60.6181 19.977 60.6743 20.1536 60.6566 20.2813C60.6487 20.4035 60.5367 20.5432 60.3206 20.7007C60.1024 20.8658 59.913 20.9393 59.7522 20.9211C59.6013 20.8972 59.4517 20.7908 59.3035 20.6021C59.215 20.4376 59.1194 20.3001 59.0164 20.1897C58.9156 20.0716 58.793 19.9725 58.6488 19.8924C58.5124 19.8145 58.336 19.7465 58.1196 19.6885C57.965 19.6471 57.8081 19.6299 57.6489 19.6369C57.4995 19.6383 57.3631 19.668 57.2399 19.7261C57.1187 19.7765 57.0117 19.8513 56.9188 19.9507C56.8337 20.0521 56.7714 20.1762 56.7321 20.323C56.6783 20.5239 56.6878 20.7046 56.7608 20.8649C56.8436 21.0196 56.9702 21.1654 57.1406 21.3021C57.3131 21.4312 57.5098 21.5625 57.7307 21.6963C57.9516 21.83 58.1754 21.9686 58.4019 22.1122C58.6342 22.2655 58.8584 22.4333 59.0746 22.6154C59.2908 22.7976 59.4717 23.0034 59.6173 23.2329C59.7649 23.4547 59.8615 23.7125 59.907 24.0062C59.9546 24.2923 59.9287 24.6208 59.8293 24.9917C59.7154 25.4167 59.5349 25.7659 59.2877 26.0392C59.0405 26.3126 58.7509 26.5124 58.4189 26.6388C58.0869 26.7652 57.7385 26.8292 57.3736 26.8308C57.0067 26.8402 56.6494 26.7982 56.3016 26.7051Z" fill="black"/>
<path d="M78.4389 47.5593C77.8825 47.7084 77.333 47.7439 76.7902 47.6657C76.2532 47.5777 75.7495 47.3979 75.2792 47.1264C74.8068 46.8471 74.4011 46.492 74.062 46.0611C73.7208 45.6225 73.4747 45.1211 73.3235 44.557C73.1682 43.9774 73.1237 43.4096 73.1901 42.8535C73.2621 42.2876 73.425 41.7677 73.6791 41.2938C73.9387 40.8101 74.2752 40.3969 74.6886 40.0542C75.102 39.7116 75.5792 39.4678 76.1201 39.3228C76.6842 39.1717 77.2348 39.1401 77.7719 39.2281C78.3146 39.3063 78.8183 39.486 79.2829 39.7674C79.7476 40.0487 80.1515 40.4126 80.4947 40.8589C80.8359 41.2976 81.0841 41.8067 81.2394 42.3862C81.3906 42.9503 81.433 43.5104 81.3666 44.0666C81.2983 44.615 81.1342 45.131 80.8746 45.6147C80.6128 46.0906 80.2753 46.4999 79.8619 46.8426C79.4541 47.1755 78.9798 47.4144 78.4389 47.5593ZM78.002 46.1608C78.3575 46.0655 78.6711 45.9069 78.9429 45.685C79.2148 45.4631 79.4335 45.1974 79.599 44.888C79.7723 44.5766 79.8812 44.241 79.9256 43.8812C79.9679 43.5137 79.9383 43.1407 79.8369 42.762C79.7354 42.3834 79.5717 42.0504 79.3456 41.7632C79.1252 41.4661 78.8621 41.226 78.5563 41.0429C78.2562 40.85 77.9329 40.7254 77.5865 40.6692C77.2479 40.6108 76.9008 40.6293 76.5454 40.7245C76.1977 40.8177 75.8879 40.9752 75.616 41.1972C75.3442 41.4191 75.1227 41.6896 74.9515 42.0088C74.7859 42.3182 74.682 42.6566 74.6396 43.0241C74.5973 43.3916 74.6258 43.7608 74.7252 44.1317C74.8246 44.5026 74.9845 44.8366 75.2049 45.1337C75.433 45.4287 75.6961 45.6688 75.9942 45.854C76.2923 46.0391 76.6106 46.1609 76.9493 46.2192C77.2956 46.2755 77.6466 46.256 78.002 46.1608ZM83.865 45.9936C83.6564 46.0495 83.4925 46.0561 83.3734 46.0135C83.2641 45.9765 83.1795 45.9081 83.1196 45.8082C83.0674 45.7062 83.0248 45.5934 82.9917 45.4698L81.1903 38.7469C81.1592 38.631 81.1457 38.5187 81.1497 38.41C81.1537 38.3012 81.1976 38.2025 81.2815 38.1138C81.3731 38.023 81.5233 37.9496 81.7319 37.8937C81.9637 37.8316 82.1294 37.8162 82.2289 37.8475C82.334 37.869 82.4377 37.9158 82.5398 37.9878L87.8616 42.3635L86.5106 37.3214C86.4796 37.2055 86.466 37.0931 86.47 36.9844C86.474 36.8757 86.5179 36.7769 86.6018 36.6882C86.6857 36.5994 86.832 36.5271 87.0406 36.4712C87.257 36.4132 87.4209 36.4066 87.5322 36.4513C87.6493 36.4862 87.7338 36.5546 87.786 36.6566C87.8459 36.7565 87.8935 36.8722 87.9287 37.0035L89.7176 43.68C89.7507 43.8036 89.7625 43.9247 89.7528 44.0433C89.7488 44.152 89.701 44.2518 89.6094 44.3426C89.5276 44.439 89.3785 44.5163 89.1621 44.5742C88.9921 44.6198 88.8528 44.6406 88.744 44.6366C88.643 44.6305 88.5404 44.5876 88.4362 44.5079L83.0595 40.1593L84.3857 45.1087C84.4188 45.2323 84.4344 45.3524 84.4325 45.4688C84.4363 45.5755 84.3962 45.6732 84.3123 45.7619C84.2305 45.8584 84.0814 45.9356 83.865 45.9936ZM92.0666 43.8084C91.8503 43.8664 91.6825 43.8741 91.5635 43.8314C91.4464 43.7965 91.3618 43.7281 91.3097 43.6261C91.2575 43.5241 91.2138 43.4075 91.1786 43.2761L89.3866 36.588C89.3162 36.3253 89.3177 36.1303 89.3913 36.0029C89.4725 35.8734 89.6523 35.7714 89.9304 35.6969L94.451 34.4856C94.5823 34.4504 94.7024 34.4348 94.8111 34.4388C94.9255 34.433 95.0271 34.4721 95.1158 34.5559C95.2025 34.6321 95.2759 34.7822 95.3359 35.0063C95.3939 35.2227 95.4015 35.3904 95.3589 35.5095C95.324 35.6265 95.2556 35.7111 95.1536 35.7633C95.0594 35.8134 94.9466 35.8561 94.8152 35.8913L90.9785 36.9193L91.5003 38.8666L94.1431 38.1585C94.2745 38.1233 94.3906 38.1087 94.4917 38.1148C94.5906 38.1131 94.6785 38.1475 94.7554 38.218C94.8322 38.2885 94.8976 38.4242 94.9514 38.6252C95.0032 38.8183 95.0144 38.9685 94.9852 39.0758C94.9539 39.1753 94.8911 39.2501 94.7969 39.3002C94.7005 39.3425 94.5867 39.3813 94.4553 39.4165L91.8357 40.1184L92.3948 42.2048L96.243 41.1737C96.3744 41.1385 96.4945 41.1229 96.6032 41.1269C96.7176 41.1211 96.8192 41.1601 96.9079 41.244C96.9966 41.3279 97.07 41.478 97.128 41.6944C97.1859 41.9108 97.1936 42.0785 97.151 42.1976C97.1161 42.3146 97.0476 42.3992 96.9457 42.4514C96.8535 42.5092 96.7417 42.5557 96.6104 42.5909L92.0666 43.8084Z" fill="black"/>
<path d="M102.29 41.0567C101.942 41.1499 101.681 41.1659 101.507 41.1048C101.332 41.036 101.206 40.9246 101.132 40.7706C101.056 40.6089 100.995 40.443 100.949 40.273L99.3434 34.2804C99.2978 34.1104 99.2688 33.9401 99.2562 33.7695C99.2436 33.599 99.2973 33.4438 99.4172 33.304C99.535 33.1565 99.7717 33.0351 100.127 32.9399C100.483 32.8446 100.744 32.8325 100.912 32.9034C101.086 32.9645 101.21 33.072 101.285 33.226C101.359 33.38 101.42 33.5459 101.468 33.7236L102.871 38.9628L105.7 38.205C105.847 38.1656 105.989 38.14 106.126 38.1279C106.272 38.1138 106.404 38.1611 106.525 38.2697C106.65 38.3685 106.754 38.5686 106.834 38.8699C106.913 39.1636 106.924 39.3885 106.866 39.5447C106.807 39.6932 106.71 39.7977 106.577 39.8581C106.454 39.9242 106.319 39.977 106.173 40.0163L102.29 41.0567ZM108.634 39.3568C108.286 39.45 108.025 39.466 107.852 39.4049C107.676 39.3361 107.551 39.2246 107.476 39.0706C107.4 38.9089 107.339 38.7431 107.293 38.5731L105.688 32.5805C105.642 32.4105 105.613 32.2402 105.6 32.0696C105.588 31.8991 105.642 31.7439 105.761 31.6041C105.879 31.4566 106.116 31.3352 106.471 31.2399C106.827 31.1447 107.089 31.1325 107.257 31.2034C107.43 31.2645 107.554 31.3721 107.629 31.5261C107.703 31.6801 107.764 31.846 107.812 32.0237L109.418 38.0163C109.463 38.1863 109.492 38.3566 109.505 38.5271C109.517 38.6977 109.465 38.8567 109.347 39.0043C109.227 39.144 108.989 39.2616 108.634 39.3568ZM111.523 38.5827C111.175 38.6758 110.915 38.6919 110.741 38.6307C110.565 38.5619 110.44 38.4505 110.366 38.2965C110.289 38.1348 110.228 37.9689 110.182 37.7989L108.577 31.8063C108.469 31.4045 108.473 31.1095 108.588 30.9212C108.709 30.7232 108.974 30.5693 109.384 30.4596L113.626 29.3228C113.804 29.2752 113.974 29.2461 114.137 29.2356C114.307 29.2231 114.463 29.2767 114.602 29.3966C114.75 29.5145 114.871 29.7511 114.967 30.1066C115.06 30.4543 115.072 30.7161 115.003 30.8919C114.942 31.0656 114.834 31.1897 114.68 31.2641C114.526 31.3385 114.361 31.3995 114.183 31.4471L110.984 32.3043L111.26 33.3359L113.404 32.7614C113.582 32.7137 113.745 32.6867 113.892 32.6804C114.037 32.6663 114.169 32.7097 114.287 32.8105C114.405 32.9114 114.506 33.1164 114.589 33.4255C114.667 33.7191 114.682 33.943 114.632 34.0972C114.58 34.2436 114.484 34.348 114.343 34.4106C114.203 34.4731 114.044 34.5282 113.866 34.5758L111.745 35.1441L112.021 36.1758L115.232 35.3154C115.41 35.2678 115.58 35.2388 115.743 35.2283C115.913 35.2157 116.068 35.2693 116.208 35.3892C116.356 35.5071 116.477 35.7437 116.572 36.0992C116.665 36.4469 116.678 36.7087 116.609 36.8845C116.548 37.0582 116.44 37.1823 116.286 37.2567C116.132 37.3311 115.966 37.3921 115.789 37.4397L111.523 38.5827Z" fill="#880000"/>
<path d="M80.7716 23.1398C81.057 23.0633 81.3547 23.0438 81.6476 23.0824C81.9406 23.1209 82.2231 23.2168 82.4789 23.3646C82.7348 23.5123 82.9591 23.709 83.139 23.9434C83.3189 24.1778 83.4508 24.4454 83.5273 24.7308L83.7612 25.604C83.9013 26.1261 83.9268 26.6723 83.836 27.2051C83.7453 27.738 83.5404 28.245 83.2354 28.6913C82.0716 30.3945 80.0767 31.6082 77.2852 32.3562C74.4937 33.1042 72.1621 33.0498 70.3055 32.1558C69.8188 31.9219 69.3884 31.5856 69.0437 31.17C68.699 30.7544 68.4481 30.2692 68.3082 29.7477L68.0732 28.8707C67.919 28.2944 68.0001 27.6804 68.2985 27.1638C68.5968 26.6473 69.0882 26.2703 69.6644 26.1159L80.7716 23.1398ZM72.1088 13.0377C72.2839 12.9908 72.47 13.0088 72.6328 13.0886C72.7955 13.1683 72.9239 13.3042 72.9942 13.4713L73.0274 13.568L73.2202 14.2917L76.601 13.3859C77.1774 13.2314 77.7915 13.3123 78.3083 13.6106C78.8251 13.909 79.2022 14.4004 79.3567 14.9769L80.5226 19.3283C80.6771 19.9048 80.5962 20.5189 80.2979 21.0357C79.9995 21.5525 79.5081 21.9296 78.9317 22.084L70.7213 24.284C70.1449 24.4384 69.5307 24.3576 69.0139 24.0592C68.4971 23.7608 68.1201 23.2694 67.9656 22.693L66.7999 18.3425C66.7234 18.057 66.7039 17.7592 66.7425 17.4662C66.7811 17.1732 66.8771 16.8906 67.0249 16.6347C67.1727 16.3788 67.3696 16.1545 67.6041 15.9746C67.8386 15.7948 68.1063 15.6629 68.3918 15.5865L71.7723 14.6797L71.5785 13.9562C71.5316 13.781 71.5497 13.5947 71.6296 13.4319C71.7095 13.269 71.8458 13.1407 72.013 13.0706L72.1088 13.0377ZM71.0992 17.9669C70.9349 18.004 70.7799 18.0738 70.6433 18.1722C70.5067 18.2707 70.3914 18.3957 70.3043 18.5398C70.2173 18.6839 70.1602 18.8441 70.1365 19.0108C70.1129 19.1775 70.1232 19.3472 70.1668 19.5098C70.2103 19.6725 70.2863 19.8246 70.3901 19.9571C70.494 20.0897 70.6235 20.1999 70.7709 20.2811C70.9184 20.3624 71.0807 20.413 71.2483 20.43C71.4158 20.4469 71.585 20.4299 71.7457 20.3798C72.054 20.2838 72.3132 20.0723 72.469 19.7895C72.6248 19.5068 72.6651 19.1746 72.5816 18.8628C72.498 18.5509 72.297 18.2835 72.0207 18.1165C71.7444 17.9495 71.4141 17.8959 71.0992 17.9669ZM75.4391 16.8041C75.2749 16.8411 75.1198 16.9109 74.9832 17.0094C74.8466 17.1078 74.7313 17.2328 74.6443 17.3769C74.5572 17.521 74.5001 17.6812 74.4765 17.8479C74.4528 18.0146 74.4631 18.1843 74.5067 18.347C74.5502 18.5096 74.6262 18.6617 74.73 18.7943C74.8339 18.9268 74.9634 19.037 75.1108 19.1182C75.2583 19.1995 75.4207 19.2501 75.5882 19.2671C75.7557 19.284 75.9249 19.267 76.0856 19.2169C76.3939 19.121 76.6531 18.9094 76.8089 18.6267C76.9647 18.3439 77.005 18.0118 76.9215 17.6999C76.8379 17.388 76.6369 17.1206 76.3606 16.9536C76.0843 16.7866 75.754 16.733 75.4391 16.8041Z" fill="#880000"/>
<path d="M56.7363 49.1178C57.0217 49.1942 57.2893 49.3262 57.5237 49.506C57.7581 49.6859 57.9548 49.9102 58.1025 50.1661C58.2503 50.422 58.3461 50.7045 58.3847 50.9974C58.4233 51.2903 58.4038 51.588 58.3273 51.8734L58.0933 52.7466C57.9535 53.2688 57.7025 53.7546 57.3575 54.1707C57.0125 54.5868 56.5815 54.9234 56.0943 55.1574C54.2347 56.0505 51.9003 56.1042 49.1088 55.3562C46.3173 54.6082 44.3253 53.3953 43.1644 51.6928C42.8599 51.2469 42.6553 50.7405 42.5645 50.2082C42.4738 49.6759 42.4991 49.1303 42.6387 48.6087L42.8737 47.7316C43.0284 47.1554 43.4055 46.6643 43.9222 46.3661C44.4389 46.068 45.0529 45.9872 45.6291 46.1416L56.7363 49.1178ZM54.2852 36.0377C54.4602 36.0846 54.6124 36.1933 54.7135 36.3437C54.8146 36.4941 54.8578 36.6761 54.8351 36.8559L54.8155 36.9562L54.6207 37.6794L58.0014 38.5853C58.5778 38.7397 59.0693 39.1168 59.3676 39.6336C59.666 40.1504 59.7468 40.7646 59.5924 41.341L58.4264 45.6925C58.272 46.2689 57.8949 46.7603 57.3781 47.0587C56.8613 47.3571 56.2471 47.4379 55.6707 47.2835L47.4604 45.0835C46.884 44.9291 46.3925 44.552 46.0942 44.0352C45.7958 43.5184 45.7149 42.9042 45.8694 42.3278L47.0351 37.9773C47.1116 37.6918 47.2436 37.4242 47.4235 37.1897C47.6035 36.9553 47.8279 36.7586 48.0839 36.6108C48.3399 36.4631 48.6225 36.3673 48.9155 36.3288C49.2085 36.2903 49.5063 36.3099 49.7917 36.3866L53.1727 37.2915L53.3666 36.568C53.4136 36.3928 53.5225 36.2406 53.6731 36.1395C53.8237 36.0384 54.0059 35.9954 54.1858 36.0183L54.2852 36.0377ZM50.9462 39.8017C50.7854 39.7517 50.6162 39.7346 50.4487 39.7516C50.2812 39.7685 50.1189 39.8192 49.9714 39.9004C49.8239 39.9817 49.6944 40.0919 49.5906 40.2244C49.4868 40.3569 49.4108 40.5091 49.3672 40.6717C49.3236 40.8343 49.3134 41.0041 49.337 41.1708C49.3607 41.3375 49.4177 41.4977 49.5048 41.6417C49.5919 41.7858 49.7072 41.9109 49.8438 42.0093C49.9803 42.1077 50.1354 42.1776 50.2996 42.2146C50.6146 42.2856 50.9448 42.232 51.2211 42.065C51.4975 41.898 51.6985 41.6306 51.782 41.3187C51.8656 41.0069 51.8252 40.6748 51.6694 40.392C51.5136 40.1092 51.2544 39.8977 50.9462 39.8017ZM55.2861 40.9646C55.1253 40.9146 54.9561 40.8975 54.7886 40.9145C54.6211 40.9314 54.4588 40.982 54.3113 41.0633C54.1638 41.1445 54.0343 41.2547 53.9305 41.3873C53.8267 41.5198 53.7507 41.672 53.7071 41.8346C53.6635 41.9972 53.6533 42.1669 53.6769 42.3336C53.7006 42.5003 53.7576 42.6605 53.8447 42.8046C53.9318 42.9487 54.0471 43.0737 54.1837 43.1722C54.3202 43.2706 54.4753 43.3404 54.6395 43.3775C54.9545 43.4485 55.2847 43.3949 55.5611 43.2279C55.8374 43.0609 56.0384 42.7935 56.1219 42.4816C56.2055 42.1698 56.1651 41.8377 56.0093 41.5549C55.8535 41.2721 55.5943 41.0606 55.2861 40.9646Z" fill="black"/>
</svg>
